<?xml version="1.0" encoding="UTF-8"?>
<svg id="Layer_1" data-name="Layer 1" xmlns="http://www.w3.org/2000/svg" viewBox="0 0 899.08 842.81">
  <defs>
    <style>
      .cls-1 {
        fill: #ed1847;
      }

      .cls-2 {
        fill: #fff;
      }
    </style>
  </defs>
  <path class="cls-1" d="M374.34,687.73v-88.97c0-5.67-.33-11.33-.93-16.96-2.56-24.02-3.95-104.84,92.24-108.54,101.28-3.9,263.64-.81,296.33-.13,3.59.08,7.18.02,10.77-.15,33.49-1.62,221.61-5.9,64.63,113.32-48.7,36.99-66.81,73.62-67.76,107.13-2.37,83.4-71.54,149.39-154.97,149.39h-85.23c-85.65,0-155.08-69.43-155.08-155.08Z"/>
  <path class="cls-1" d="M453.61,480.41l131.17-135.25s94.81-104.08,47.76,44.91c-47.05,148.99,52.04,90.09,52.04,90.09l-230.97.24Z"/>
  <path class="cls-1" d="M635.87,485.4l131.17-135.25s94.81-104.08,47.76,44.91c-47.05,148.99,52.04,90.09,52.04,90.09l-230.97.24Z"/>
  <path class="cls-2" d="M442.21,637.44h0c2.97-19.1,17.97-34.08,37.08-37.02l14.25-2.19s91.24-23.52,75.56,22.81c-15.68,46.34-126.89,16.4-126.89,16.4Z"/>
  <path class="cls-2" d="M604.75,637.44h0c2.97-19.1,17.97-34.08,37.08-37.02l14.25-2.19s91.24-23.52,75.56,22.81c-15.68,46.34-126.89,16.4-126.89,16.4Z"/>
  <path class="cls-2" d="M475.72,717.28s5.7,57.74,74.14,56.32,116.2-56.32,116.2-56.32h-190.34Z"/>
</svg>